<?xml version="1.0" encoding="UTF-8" standalone="no"?>
<!-- Created with Inkscape (http://www.inkscape.org/) -->

<svg
   version="1.1"
   id="svg9"
   xml:space="preserve"
   width="81.127357"
   height="32.393406"
   viewBox="0 0 81.127358 32.393406"
   sodipodi:docname="Cosmic Red - Smaller Bump.svg"
   inkscape:version="1.1.2 (b8e25be833, 2022-02-05)"
   inkscape:export-filename="C:\Users\James\Downloads\.images\dualsense\bumper.png"
   inkscape:export-xdpi="96"
   inkscape:export-ydpi="96"
   xmlns:inkscape="http://www.inkscape.org/namespaces/inkscape"
   xmlns:sodipodi="http://sodipodi.sourceforge.net/DTD/sodipodi-0.dtd"
   xmlns="http://www.w3.org/2000/svg"
   xmlns:svg="http://www.w3.org/2000/svg"><defs
     id="defs13"><clipPath
       clipPathUnits="userSpaceOnUse"
       id="clipPath25"><path
         d="M 0,4096 H 4096 V 0 H 0 Z"
         id="path23" /></clipPath><clipPath
       clipPathUnits="userSpaceOnUse"
       id="clipPath33"><path
         d="M 0,4096 H 256 V 3840 H 0 Z"
         id="path31" /></clipPath><clipPath
       clipPathUnits="userSpaceOnUse"
       id="clipPath47"><path
         d="M 256,4096 H 512 V 3840 H 256 Z"
         id="path45" /></clipPath><clipPath
       clipPathUnits="userSpaceOnUse"
       id="clipPath61"><path
         d="M 512,4096 H 768 V 3840 H 512 Z"
         id="path59" /></clipPath><clipPath
       clipPathUnits="userSpaceOnUse"
       id="clipPath75"><path
         d="m 768,4096 h 256 V 3840 H 768 Z"
         id="path73" /></clipPath><clipPath
       clipPathUnits="userSpaceOnUse"
       id="clipPath89"><path
         d="m 1024,4096 h 256 v -256 h -256 z"
         id="path87" /></clipPath><clipPath
       clipPathUnits="userSpaceOnUse"
       id="clipPath103"><path
         d="m 1280,4096 h 256 v -256 h -256 z"
         id="path101" /></clipPath><clipPath
       clipPathUnits="userSpaceOnUse"
       id="clipPath117"><path
         d="m 1536,4096 h 256 v -256 h -256 z"
         id="path115" /></clipPath><clipPath
       clipPathUnits="userSpaceOnUse"
       id="clipPath131"><path
         d="m 1792,4096 h 256 v -256 h -256 z"
         id="path129" /></clipPath><clipPath
       clipPathUnits="userSpaceOnUse"
       id="clipPath145"><path
         d="m 2048,4096 h 256 v -256 h -256 z"
         id="path143" /></clipPath><clipPath
       clipPathUnits="userSpaceOnUse"
       id="clipPath159"><path
         d="m 2304,4096 h 256 v -256 h -256 z"
         id="path157" /></clipPath><clipPath
       clipPathUnits="userSpaceOnUse"
       id="clipPath173"><path
         d="m 2560,4096 h 256 v -256 h -256 z"
         id="path171" /></clipPath><clipPath
       clipPathUnits="userSpaceOnUse"
       id="clipPath187"><path
         d="m 2816,4096 h 256 v -256 h -256 z"
         id="path185" /></clipPath><clipPath
       clipPathUnits="userSpaceOnUse"
       id="clipPath201"><path
         d="m 3072,4096 h 256 v -256 h -256 z"
         id="path199" /></clipPath><clipPath
       clipPathUnits="userSpaceOnUse"
       id="clipPath215"><path
         d="m 3328,4096 h 256 v -256 h -256 z"
         id="path213" /></clipPath><clipPath
       clipPathUnits="userSpaceOnUse"
       id="clipPath229"><path
         d="m 3584,4096 h 256 v -256 h -256 z"
         id="path227" /></clipPath><clipPath
       clipPathUnits="userSpaceOnUse"
       id="clipPath243"><path
         d="m 3840,4096 h 256 v -256 h -256 z"
         id="path241" /></clipPath><clipPath
       clipPathUnits="userSpaceOnUse"
       id="clipPath257"><path
         d="M 0,3840 H 256 V 3584 H 0 Z"
         id="path255" /></clipPath><clipPath
       clipPathUnits="userSpaceOnUse"
       id="clipPath271"><path
         d="M 256,3840 H 512 V 3584 H 256 Z"
         id="path269" /></clipPath><clipPath
       clipPathUnits="userSpaceOnUse"
       id="clipPath285"><path
         d="M 512,3840 H 768 V 3584 H 512 Z"
         id="path283" /></clipPath><clipPath
       clipPathUnits="userSpaceOnUse"
       id="clipPath299"><path
         d="m 768,3840 h 256 V 3584 H 768 Z"
         id="path297" /></clipPath><clipPath
       clipPathUnits="userSpaceOnUse"
       id="clipPath313"><path
         d="m 1024,3840 h 256 v -256 h -256 z"
         id="path311" /></clipPath><clipPath
       clipPathUnits="userSpaceOnUse"
       id="clipPath327"><path
         d="m 1280,3840 h 256 v -256 h -256 z"
         id="path325" /></clipPath><clipPath
       clipPathUnits="userSpaceOnUse"
       id="clipPath341"><path
         d="m 1536,3840 h 256 v -256 h -256 z"
         id="path339" /></clipPath><clipPath
       clipPathUnits="userSpaceOnUse"
       id="clipPath355"><path
         d="m 1792,3840 h 256 v -256 h -256 z"
         id="path353" /></clipPath><clipPath
       clipPathUnits="userSpaceOnUse"
       id="clipPath369"><path
         d="m 2048,3840 h 256 v -256 h -256 z"
         id="path367" /></clipPath><clipPath
       clipPathUnits="userSpaceOnUse"
       id="clipPath383"><path
         d="m 2304,3840 h 256 v -256 h -256 z"
         id="path381" /></clipPath><clipPath
       clipPathUnits="userSpaceOnUse"
       id="clipPath397"><path
         d="m 2560,3840 h 256 v -256 h -256 z"
         id="path395" /></clipPath><clipPath
       clipPathUnits="userSpaceOnUse"
       id="clipPath411"><path
         d="m 2816,3840 h 256 v -256 h -256 z"
         id="path409" /></clipPath><clipPath
       clipPathUnits="userSpaceOnUse"
       id="clipPath425"><path
         d="m 3072,3840 h 256 v -256 h -256 z"
         id="path423" /></clipPath><clipPath
       clipPathUnits="userSpaceOnUse"
       id="clipPath439"><path
         d="m 3328,3840 h 256 v -256 h -256 z"
         id="path437" /></clipPath><clipPath
       clipPathUnits="userSpaceOnUse"
       id="clipPath453"><path
         d="m 3584,3840 h 256 v -256 h -256 z"
         id="path451" /></clipPath><clipPath
       clipPathUnits="userSpaceOnUse"
       id="clipPath467"><path
         d="m 3840,3840 h 256 v -256 h -256 z"
         id="path465" /></clipPath><clipPath
       clipPathUnits="userSpaceOnUse"
       id="clipPath481"><path
         d="M 0,3584 H 256 V 3328 H 0 Z"
         id="path479" /></clipPath><clipPath
       clipPathUnits="userSpaceOnUse"
       id="clipPath495"><path
         d="M 256,3584 H 512 V 3328 H 256 Z"
         id="path493" /></clipPath><clipPath
       clipPathUnits="userSpaceOnUse"
       id="clipPath509"><path
         d="M 512,3584 H 768 V 3328 H 512 Z"
         id="path507" /></clipPath><clipPath
       clipPathUnits="userSpaceOnUse"
       id="clipPath523"><path
         d="m 768,3584 h 256 V 3328 H 768 Z"
         id="path521" /></clipPath><clipPath
       clipPathUnits="userSpaceOnUse"
       id="clipPath537"><path
         d="m 1024,3584 h 256 v -256 h -256 z"
         id="path535" /></clipPath><clipPath
       clipPathUnits="userSpaceOnUse"
       id="clipPath551"><path
         d="m 1280,3584 h 256 v -256 h -256 z"
         id="path549" /></clipPath><clipPath
       clipPathUnits="userSpaceOnUse"
       id="clipPath565"><path
         d="m 1536,3584 h 256 v -256 h -256 z"
         id="path563" /></clipPath><clipPath
       clipPathUnits="userSpaceOnUse"
       id="clipPath579"><path
         d="m 1792,3584 h 256 v -256 h -256 z"
         id="path577" /></clipPath><clipPath
       clipPathUnits="userSpaceOnUse"
       id="clipPath593"><path
         d="m 2048,3584 h 256 v -256 h -256 z"
         id="path591" /></clipPath><clipPath
       clipPathUnits="userSpaceOnUse"
       id="clipPath607"><path
         d="m 2304,3584 h 256 v -256 h -256 z"
         id="path605" /></clipPath><clipPath
       clipPathUnits="userSpaceOnUse"
       id="clipPath621"><path
         d="m 2560,3584 h 256 v -256 h -256 z"
         id="path619" /></clipPath><clipPath
       clipPathUnits="userSpaceOnUse"
       id="clipPath635"><path
         d="m 2816,3584 h 256 v -256 h -256 z"
         id="path633" /></clipPath><clipPath
       clipPathUnits="userSpaceOnUse"
       id="clipPath649"><path
         d="m 3072,3584 h 256 v -256 h -256 z"
         id="path647" /></clipPath><clipPath
       clipPathUnits="userSpaceOnUse"
       id="clipPath663"><path
         d="m 3328,3584 h 256 v -256 h -256 z"
         id="path661" /></clipPath><clipPath
       clipPathUnits="userSpaceOnUse"
       id="clipPath677"><path
         d="m 3584,3584 h 256 v -256 h -256 z"
         id="path675" /></clipPath><clipPath
       clipPathUnits="userSpaceOnUse"
       id="clipPath691"><path
         d="m 3840,3584 h 256 v -256 h -256 z"
         id="path689" /></clipPath><clipPath
       clipPathUnits="userSpaceOnUse"
       id="clipPath705"><path
         d="M 0,3328 H 256 V 3072 H 0 Z"
         id="path703" /></clipPath><clipPath
       clipPathUnits="userSpaceOnUse"
       id="clipPath719"><path
         d="M 256,3328 H 512 V 3072 H 256 Z"
         id="path717" /></clipPath><clipPath
       clipPathUnits="userSpaceOnUse"
       id="clipPath733"><path
         d="M 512,3328 H 768 V 3072 H 512 Z"
         id="path731" /></clipPath><clipPath
       clipPathUnits="userSpaceOnUse"
       id="clipPath747"><path
         d="m 768,3328 h 256 V 3072 H 768 Z"
         id="path745" /></clipPath><clipPath
       clipPathUnits="userSpaceOnUse"
       id="clipPath761"><path
         d="m 1024,3328 h 256 v -256 h -256 z"
         id="path759" /></clipPath><clipPath
       clipPathUnits="userSpaceOnUse"
       id="clipPath775"><path
         d="m 1280,3328 h 256 v -256 h -256 z"
         id="path773" /></clipPath><clipPath
       clipPathUnits="userSpaceOnUse"
       id="clipPath789"><path
         d="m 1536,3328 h 256 v -256 h -256 z"
         id="path787" /></clipPath><clipPath
       clipPathUnits="userSpaceOnUse"
       id="clipPath803"><path
         d="m 1792,3328 h 256 v -256 h -256 z"
         id="path801" /></clipPath><clipPath
       clipPathUnits="userSpaceOnUse"
       id="clipPath817"><path
         d="m 2048,3328 h 256 v -256 h -256 z"
         id="path815" /></clipPath><clipPath
       clipPathUnits="userSpaceOnUse"
       id="clipPath831"><path
         d="m 2304,3328 h 256 v -256 h -256 z"
         id="path829" /></clipPath><clipPath
       clipPathUnits="userSpaceOnUse"
       id="clipPath845"><path
         d="m 2560,3328 h 256 v -256 h -256 z"
         id="path843" /></clipPath><clipPath
       clipPathUnits="userSpaceOnUse"
       id="clipPath859"><path
         d="m 2816,3328 h 256 v -256 h -256 z"
         id="path857" /></clipPath><clipPath
       clipPathUnits="userSpaceOnUse"
       id="clipPath873"><path
         d="m 3072,3328 h 256 v -256 h -256 z"
         id="path871" /></clipPath><clipPath
       clipPathUnits="userSpaceOnUse"
       id="clipPath887"><path
         d="m 3328,3328 h 256 v -256 h -256 z"
         id="path885" /></clipPath><clipPath
       clipPathUnits="userSpaceOnUse"
       id="clipPath901"><path
         d="m 3584,3328 h 256 v -256 h -256 z"
         id="path899" /></clipPath><clipPath
       clipPathUnits="userSpaceOnUse"
       id="clipPath915"><path
         d="m 3840,3328 h 256 v -256 h -256 z"
         id="path913" /></clipPath><clipPath
       clipPathUnits="userSpaceOnUse"
       id="clipPath929"><path
         d="M 0,3072 H 256 V 2816 H 0 Z"
         id="path927" /></clipPath><clipPath
       clipPathUnits="userSpaceOnUse"
       id="clipPath943"><path
         d="M 256,3072 H 512 V 2816 H 256 Z"
         id="path941" /></clipPath><clipPath
       clipPathUnits="userSpaceOnUse"
       id="clipPath957"><path
         d="M 512,3072 H 768 V 2816 H 512 Z"
         id="path955" /></clipPath><clipPath
       clipPathUnits="userSpaceOnUse"
       id="clipPath971"><path
         d="m 768,3072 h 256 V 2816 H 768 Z"
         id="path969" /></clipPath><clipPath
       clipPathUnits="userSpaceOnUse"
       id="clipPath985"><path
         d="m 1024,3072 h 256 v -256 h -256 z"
         id="path983" /></clipPath><clipPath
       clipPathUnits="userSpaceOnUse"
       id="clipPath999"><path
         d="m 1280,3072 h 256 v -256 h -256 z"
         id="path997" /></clipPath><clipPath
       clipPathUnits="userSpaceOnUse"
       id="clipPath1013"><path
         d="m 1536,3072 h 256 v -256 h -256 z"
         id="path1011" /></clipPath><clipPath
       clipPathUnits="userSpaceOnUse"
       id="clipPath1027"><path
         d="m 1792,3072 h 256 v -256 h -256 z"
         id="path1025" /></clipPath><clipPath
       clipPathUnits="userSpaceOnUse"
       id="clipPath1041"><path
         d="m 2048,3072 h 256 v -256 h -256 z"
         id="path1039" /></clipPath><clipPath
       clipPathUnits="userSpaceOnUse"
       id="clipPath1055"><path
         d="m 2304,3072 h 256 v -256 h -256 z"
         id="path1053" /></clipPath><clipPath
       clipPathUnits="userSpaceOnUse"
       id="clipPath1069"><path
         d="m 2560,3072 h 256 v -256 h -256 z"
         id="path1067" /></clipPath><clipPath
       clipPathUnits="userSpaceOnUse"
       id="clipPath1083"><path
         d="m 2816,3072 h 256 v -256 h -256 z"
         id="path1081" /></clipPath><clipPath
       clipPathUnits="userSpaceOnUse"
       id="clipPath1097"><path
         d="m 3072,3072 h 256 v -256 h -256 z"
         id="path1095" /></clipPath><clipPath
       clipPathUnits="userSpaceOnUse"
       id="clipPath1111"><path
         d="m 3328,3072 h 256 v -256 h -256 z"
         id="path1109" /></clipPath><clipPath
       clipPathUnits="userSpaceOnUse"
       id="clipPath1125"><path
         d="m 3584,3072 h 256 v -256 h -256 z"
         id="path1123" /></clipPath><clipPath
       clipPathUnits="userSpaceOnUse"
       id="clipPath1139"><path
         d="m 3840,3072 h 256 v -256 h -256 z"
         id="path1137" /></clipPath><clipPath
       clipPathUnits="userSpaceOnUse"
       id="clipPath1153"><path
         d="M 0,2816 H 256 V 2560 H 0 Z"
         id="path1151" /></clipPath><clipPath
       clipPathUnits="userSpaceOnUse"
       id="clipPath1167"><path
         d="M 256,2816 H 512 V 2560 H 256 Z"
         id="path1165" /></clipPath><clipPath
       clipPathUnits="userSpaceOnUse"
       id="clipPath1181"><path
         d="M 512,2816 H 768 V 2560 H 512 Z"
         id="path1179" /></clipPath><clipPath
       clipPathUnits="userSpaceOnUse"
       id="clipPath1195"><path
         d="m 768,2816 h 256 V 2560 H 768 Z"
         id="path1193" /></clipPath><clipPath
       clipPathUnits="userSpaceOnUse"
       id="clipPath1209"><path
         d="m 1024,2816 h 256 v -256 h -256 z"
         id="path1207" /></clipPath><clipPath
       clipPathUnits="userSpaceOnUse"
       id="clipPath1223"><path
         d="m 1280,2816 h 256 v -256 h -256 z"
         id="path1221" /></clipPath><clipPath
       clipPathUnits="userSpaceOnUse"
       id="clipPath1237"><path
         d="m 1536,2816 h 256 v -256 h -256 z"
         id="path1235" /></clipPath><clipPath
       clipPathUnits="userSpaceOnUse"
       id="clipPath1251"><path
         d="m 1792,2816 h 256 v -256 h -256 z"
         id="path1249" /></clipPath><clipPath
       clipPathUnits="userSpaceOnUse"
       id="clipPath1265"><path
         d="m 2048,2816 h 256 v -256 h -256 z"
         id="path1263" /></clipPath><clipPath
       clipPathUnits="userSpaceOnUse"
       id="clipPath1279"><path
         d="m 2304,2816 h 256 v -256 h -256 z"
         id="path1277" /></clipPath><clipPath
       clipPathUnits="userSpaceOnUse"
       id="clipPath1293"><path
         d="m 2560,2816 h 256 v -256 h -256 z"
         id="path1291" /></clipPath><clipPath
       clipPathUnits="userSpaceOnUse"
       id="clipPath1307"><path
         d="m 2816,2816 h 256 v -256 h -256 z"
         id="path1305" /></clipPath><clipPath
       clipPathUnits="userSpaceOnUse"
       id="clipPath1321"><path
         d="m 3072,2816 h 256 v -256 h -256 z"
         id="path1319" /></clipPath><clipPath
       clipPathUnits="userSpaceOnUse"
       id="clipPath1335"><path
         d="m 3328,2816 h 256 v -256 h -256 z"
         id="path1333" /></clipPath><clipPath
       clipPathUnits="userSpaceOnUse"
       id="clipPath1349"><path
         d="m 3584,2816 h 256 v -256 h -256 z"
         id="path1347" /></clipPath><clipPath
       clipPathUnits="userSpaceOnUse"
       id="clipPath1363"><path
         d="m 3840,2816 h 256 v -256 h -256 z"
         id="path1361" /></clipPath><clipPath
       clipPathUnits="userSpaceOnUse"
       id="clipPath1377"><path
         d="M 0,2560 H 256 V 2304 H 0 Z"
         id="path1375" /></clipPath><clipPath
       clipPathUnits="userSpaceOnUse"
       id="clipPath1391"><path
         d="M 256,2560 H 512 V 2304 H 256 Z"
         id="path1389" /></clipPath><clipPath
       clipPathUnits="userSpaceOnUse"
       id="clipPath1405"><path
         d="M 512,2560 H 768 V 2304 H 512 Z"
         id="path1403" /></clipPath><clipPath
       clipPathUnits="userSpaceOnUse"
       id="clipPath1419"><path
         d="m 768,2560 h 256 V 2304 H 768 Z"
         id="path1417" /></clipPath><clipPath
       clipPathUnits="userSpaceOnUse"
       id="clipPath1433"><path
         d="m 1024,2560 h 256 v -256 h -256 z"
         id="path1431" /></clipPath><clipPath
       clipPathUnits="userSpaceOnUse"
       id="clipPath1447"><path
         d="m 1280,2560 h 256 v -256 h -256 z"
         id="path1445" /></clipPath><clipPath
       clipPathUnits="userSpaceOnUse"
       id="clipPath1461"><path
         d="m 1536,2560 h 256 v -256 h -256 z"
         id="path1459" /></clipPath><clipPath
       clipPathUnits="userSpaceOnUse"
       id="clipPath1475"><path
         d="m 1792,2560 h 256 v -256 h -256 z"
         id="path1473" /></clipPath><clipPath
       clipPathUnits="userSpaceOnUse"
       id="clipPath1489"><path
         d="m 2048,2560 h 256 v -256 h -256 z"
         id="path1487" /></clipPath><clipPath
       clipPathUnits="userSpaceOnUse"
       id="clipPath1503"><path
         d="m 2304,2560 h 256 v -256 h -256 z"
         id="path1501" /></clipPath><clipPath
       clipPathUnits="userSpaceOnUse"
       id="clipPath1517"><path
         d="m 2560,2560 h 256 v -256 h -256 z"
         id="path1515" /></clipPath><clipPath
       clipPathUnits="userSpaceOnUse"
       id="clipPath1531"><path
         d="m 2816,2560 h 256 v -256 h -256 z"
         id="path1529" /></clipPath><clipPath
       clipPathUnits="userSpaceOnUse"
       id="clipPath1545"><path
         d="m 3072,2560 h 256 v -256 h -256 z"
         id="path1543" /></clipPath><clipPath
       clipPathUnits="userSpaceOnUse"
       id="clipPath1559"><path
         d="m 3328,2560 h 256 v -256 h -256 z"
         id="path1557" /></clipPath><clipPath
       clipPathUnits="userSpaceOnUse"
       id="clipPath1573"><path
         d="m 3584,2560 h 256 v -256 h -256 z"
         id="path1571" /></clipPath><clipPath
       clipPathUnits="userSpaceOnUse"
       id="clipPath1587"><path
         d="m 3840,2560 h 256 v -256 h -256 z"
         id="path1585" /></clipPath><clipPath
       clipPathUnits="userSpaceOnUse"
       id="clipPath1601"><path
         d="M 0,2304 H 256 V 2048 H 0 Z"
         id="path1599" /></clipPath><clipPath
       clipPathUnits="userSpaceOnUse"
       id="clipPath1615"><path
         d="M 256,2304 H 512 V 2048 H 256 Z"
         id="path1613" /></clipPath><clipPath
       clipPathUnits="userSpaceOnUse"
       id="clipPath1629"><path
         d="M 512,2304 H 768 V 2048 H 512 Z"
         id="path1627" /></clipPath><clipPath
       clipPathUnits="userSpaceOnUse"
       id="clipPath1643"><path
         d="m 768,2304 h 256 V 2048 H 768 Z"
         id="path1641" /></clipPath><clipPath
       clipPathUnits="userSpaceOnUse"
       id="clipPath1657"><path
         d="m 1024,2304 h 256 v -256 h -256 z"
         id="path1655" /></clipPath><clipPath
       clipPathUnits="userSpaceOnUse"
       id="clipPath1671"><path
         d="m 1280,2304 h 256 v -256 h -256 z"
         id="path1669" /></clipPath><clipPath
       clipPathUnits="userSpaceOnUse"
       id="clipPath1685"><path
         d="m 1536,2304 h 256 v -256 h -256 z"
         id="path1683" /></clipPath><clipPath
       clipPathUnits="userSpaceOnUse"
       id="clipPath1699"><path
         d="m 1792,2304 h 256 v -256 h -256 z"
         id="path1697" /></clipPath><clipPath
       clipPathUnits="userSpaceOnUse"
       id="clipPath1713"><path
         d="m 2048,2304 h 256 v -256 h -256 z"
         id="path1711" /></clipPath><clipPath
       clipPathUnits="userSpaceOnUse"
       id="clipPath1727"><path
         d="m 2304,2304 h 256 v -256 h -256 z"
         id="path1725" /></clipPath><clipPath
       clipPathUnits="userSpaceOnUse"
       id="clipPath1741"><path
         d="m 2560,2304 h 256 v -256 h -256 z"
         id="path1739" /></clipPath><clipPath
       clipPathUnits="userSpaceOnUse"
       id="clipPath1755"><path
         d="m 2816,2304 h 256 v -256 h -256 z"
         id="path1753" /></clipPath><clipPath
       clipPathUnits="userSpaceOnUse"
       id="clipPath1769"><path
         d="m 3072,2304 h 256 v -256 h -256 z"
         id="path1767" /></clipPath><clipPath
       clipPathUnits="userSpaceOnUse"
       id="clipPath1783"><path
         d="m 3328,2304 h 256 v -256 h -256 z"
         id="path1781" /></clipPath><clipPath
       clipPathUnits="userSpaceOnUse"
       id="clipPath1797"><path
         d="m 3584,2304 h 256 v -256 h -256 z"
         id="path1795" /></clipPath><clipPath
       clipPathUnits="userSpaceOnUse"
       id="clipPath1811"><path
         d="m 3840,2304 h 256 v -256 h -256 z"
         id="path1809" /></clipPath><clipPath
       clipPathUnits="userSpaceOnUse"
       id="clipPath1825"><path
         d="M 0,2048 H 256 V 1792 H 0 Z"
         id="path1823" /></clipPath><clipPath
       clipPathUnits="userSpaceOnUse"
       id="clipPath1839"><path
         d="M 256,2048 H 512 V 1792 H 256 Z"
         id="path1837" /></clipPath><clipPath
       clipPathUnits="userSpaceOnUse"
       id="clipPath1853"><path
         d="M 512,2048 H 768 V 1792 H 512 Z"
         id="path1851" /></clipPath><clipPath
       clipPathUnits="userSpaceOnUse"
       id="clipPath1867"><path
         d="m 768,2048 h 256 V 1792 H 768 Z"
         id="path1865" /></clipPath><clipPath
       clipPathUnits="userSpaceOnUse"
       id="clipPath1881"><path
         d="m 1024,2048 h 256 v -256 h -256 z"
         id="path1879" /></clipPath><clipPath
       clipPathUnits="userSpaceOnUse"
       id="clipPath1895"><path
         d="m 1280,2048 h 256 v -256 h -256 z"
         id="path1893" /></clipPath><clipPath
       clipPathUnits="userSpaceOnUse"
       id="clipPath1909"><path
         d="m 1536,2048 h 256 v -256 h -256 z"
         id="path1907" /></clipPath><clipPath
       clipPathUnits="userSpaceOnUse"
       id="clipPath1923"><path
         d="m 1792,2048 h 256 v -256 h -256 z"
         id="path1921" /></clipPath><clipPath
       clipPathUnits="userSpaceOnUse"
       id="clipPath1937"><path
         d="m 2048,2048 h 256 v -256 h -256 z"
         id="path1935" /></clipPath><clipPath
       clipPathUnits="userSpaceOnUse"
       id="clipPath1951"><path
         d="m 2304,2048 h 256 v -256 h -256 z"
         id="path1949" /></clipPath><clipPath
       clipPathUnits="userSpaceOnUse"
       id="clipPath1965"><path
         d="m 2560,2048 h 256 v -256 h -256 z"
         id="path1963" /></clipPath><clipPath
       clipPathUnits="userSpaceOnUse"
       id="clipPath1979"><path
         d="m 2816,2048 h 256 v -256 h -256 z"
         id="path1977" /></clipPath><clipPath
       clipPathUnits="userSpaceOnUse"
       id="clipPath1993"><path
         d="m 3072,2048 h 256 v -256 h -256 z"
         id="path1991" /></clipPath><clipPath
       clipPathUnits="userSpaceOnUse"
       id="clipPath2007"><path
         d="m 3328,2048 h 256 v -256 h -256 z"
         id="path2005" /></clipPath><clipPath
       clipPathUnits="userSpaceOnUse"
       id="clipPath2021"><path
         d="m 3584,2048 h 256 v -256 h -256 z"
         id="path2019" /></clipPath><clipPath
       clipPathUnits="userSpaceOnUse"
       id="clipPath2035"><path
         d="m 3840,2048 h 256 v -256 h -256 z"
         id="path2033" /></clipPath><clipPath
       clipPathUnits="userSpaceOnUse"
       id="clipPath2049"><path
         d="M 0,1792 H 256 V 1536 H 0 Z"
         id="path2047" /></clipPath><clipPath
       clipPathUnits="userSpaceOnUse"
       id="clipPath2063"><path
         d="M 256,1792 H 512 V 1536 H 256 Z"
         id="path2061" /></clipPath><clipPath
       clipPathUnits="userSpaceOnUse"
       id="clipPath2077"><path
         d="M 512,1792 H 768 V 1536 H 512 Z"
         id="path2075" /></clipPath><clipPath
       clipPathUnits="userSpaceOnUse"
       id="clipPath2091"><path
         d="m 768,1792 h 256 V 1536 H 768 Z"
         id="path2089" /></clipPath><clipPath
       clipPathUnits="userSpaceOnUse"
       id="clipPath2105"><path
         d="m 1024,1792 h 256 v -256 h -256 z"
         id="path2103" /></clipPath><clipPath
       clipPathUnits="userSpaceOnUse"
       id="clipPath2119"><path
         d="m 1280,1792 h 256 v -256 h -256 z"
         id="path2117" /></clipPath><clipPath
       clipPathUnits="userSpaceOnUse"
       id="clipPath2133"><path
         d="m 1536,1792 h 256 v -256 h -256 z"
         id="path2131" /></clipPath><clipPath
       clipPathUnits="userSpaceOnUse"
       id="clipPath2147"><path
         d="m 1792,1792 h 256 v -256 h -256 z"
         id="path2145" /></clipPath><clipPath
       clipPathUnits="userSpaceOnUse"
       id="clipPath2161"><path
         d="m 2048,1792 h 256 v -256 h -256 z"
         id="path2159" /></clipPath><clipPath
       clipPathUnits="userSpaceOnUse"
       id="clipPath2175"><path
         d="m 2304,1792 h 256 v -256 h -256 z"
         id="path2173" /></clipPath><clipPath
       clipPathUnits="userSpaceOnUse"
       id="clipPath2189"><path
         d="m 2560,1792 h 256 v -256 h -256 z"
         id="path2187" /></clipPath><clipPath
       clipPathUnits="userSpaceOnUse"
       id="clipPath2203"><path
         d="m 2816,1792 h 256 v -256 h -256 z"
         id="path2201" /></clipPath><clipPath
       clipPathUnits="userSpaceOnUse"
       id="clipPath2217"><path
         d="m 3072,1792 h 256 v -256 h -256 z"
         id="path2215" /></clipPath><clipPath
       clipPathUnits="userSpaceOnUse"
       id="clipPath2231"><path
         d="m 3328,1792 h 256 v -256 h -256 z"
         id="path2229" /></clipPath><clipPath
       clipPathUnits="userSpaceOnUse"
       id="clipPath2245"><path
         d="m 3584,1792 h 256 v -256 h -256 z"
         id="path2243" /></clipPath><clipPath
       clipPathUnits="userSpaceOnUse"
       id="clipPath2259"><path
         d="m 3840,1792 h 256 v -256 h -256 z"
         id="path2257" /></clipPath><clipPath
       clipPathUnits="userSpaceOnUse"
       id="clipPath2273"><path
         d="M 0,1536 H 256 V 1280 H 0 Z"
         id="path2271" /></clipPath><clipPath
       clipPathUnits="userSpaceOnUse"
       id="clipPath2287"><path
         d="M 256,1536 H 512 V 1280 H 256 Z"
         id="path2285" /></clipPath><clipPath
       clipPathUnits="userSpaceOnUse"
       id="clipPath2301"><path
         d="M 512,1536 H 768 V 1280 H 512 Z"
         id="path2299" /></clipPath><clipPath
       clipPathUnits="userSpaceOnUse"
       id="clipPath2315"><path
         d="m 768,1536 h 256 V 1280 H 768 Z"
         id="path2313" /></clipPath><clipPath
       clipPathUnits="userSpaceOnUse"
       id="clipPath2329"><path
         d="m 1024,1536 h 256 v -256 h -256 z"
         id="path2327" /></clipPath><clipPath
       clipPathUnits="userSpaceOnUse"
       id="clipPath2343"><path
         d="m 1280,1536 h 256 v -256 h -256 z"
         id="path2341" /></clipPath><clipPath
       clipPathUnits="userSpaceOnUse"
       id="clipPath2357"><path
         d="m 1536,1536 h 256 v -256 h -256 z"
         id="path2355" /></clipPath><clipPath
       clipPathUnits="userSpaceOnUse"
       id="clipPath2371"><path
         d="m 1792,1536 h 256 v -256 h -256 z"
         id="path2369" /></clipPath><clipPath
       clipPathUnits="userSpaceOnUse"
       id="clipPath2385"><path
         d="m 2048,1536 h 256 v -256 h -256 z"
         id="path2383" /></clipPath><clipPath
       clipPathUnits="userSpaceOnUse"
       id="clipPath2399"><path
         d="m 2304,1536 h 256 v -256 h -256 z"
         id="path2397" /></clipPath><clipPath
       clipPathUnits="userSpaceOnUse"
       id="clipPath2413"><path
         d="m 2560,1536 h 256 v -256 h -256 z"
         id="path2411" /></clipPath><clipPath
       clipPathUnits="userSpaceOnUse"
       id="clipPath2427"><path
         d="m 2816,1536 h 256 v -256 h -256 z"
         id="path2425" /></clipPath><clipPath
       clipPathUnits="userSpaceOnUse"
       id="clipPath2441"><path
         d="m 3072,1536 h 256 v -256 h -256 z"
         id="path2439" /></clipPath><clipPath
       clipPathUnits="userSpaceOnUse"
       id="clipPath2455"><path
         d="m 3328,1536 h 256 v -256 h -256 z"
         id="path2453" /></clipPath><clipPath
       clipPathUnits="userSpaceOnUse"
       id="clipPath2469"><path
         d="m 3584,1536 h 256 v -256 h -256 z"
         id="path2467" /></clipPath><clipPath
       clipPathUnits="userSpaceOnUse"
       id="clipPath2483"><path
         d="m 3840,1536 h 256 v -256 h -256 z"
         id="path2481" /></clipPath><clipPath
       clipPathUnits="userSpaceOnUse"
       id="clipPath2497"><path
         d="M 0,1280 H 256 V 1024 H 0 Z"
         id="path2495" /></clipPath><clipPath
       clipPathUnits="userSpaceOnUse"
       id="clipPath2511"><path
         d="M 256,1280 H 512 V 1024 H 256 Z"
         id="path2509" /></clipPath><clipPath
       clipPathUnits="userSpaceOnUse"
       id="clipPath2525"><path
         d="M 512,1280 H 768 V 1024 H 512 Z"
         id="path2523" /></clipPath><clipPath
       clipPathUnits="userSpaceOnUse"
       id="clipPath2539"><path
         d="m 768,1280 h 256 V 1024 H 768 Z"
         id="path2537" /></clipPath><clipPath
       clipPathUnits="userSpaceOnUse"
       id="clipPath2553"><path
         d="m 1024,1280 h 256 v -256 h -256 z"
         id="path2551" /></clipPath><clipPath
       clipPathUnits="userSpaceOnUse"
       id="clipPath2567"><path
         d="m 1280,1280 h 256 v -256 h -256 z"
         id="path2565" /></clipPath><clipPath
       clipPathUnits="userSpaceOnUse"
       id="clipPath2581"><path
         d="m 1536,1280 h 256 v -256 h -256 z"
         id="path2579" /></clipPath><clipPath
       clipPathUnits="userSpaceOnUse"
       id="clipPath2595"><path
         d="m 1792,1280 h 256 v -256 h -256 z"
         id="path2593" /></clipPath><clipPath
       clipPathUnits="userSpaceOnUse"
       id="clipPath2609"><path
         d="m 2048,1280 h 256 v -256 h -256 z"
         id="path2607" /></clipPath><clipPath
       clipPathUnits="userSpaceOnUse"
       id="clipPath2623"><path
         d="m 2304,1280 h 256 v -256 h -256 z"
         id="path2621" /></clipPath><clipPath
       clipPathUnits="userSpaceOnUse"
       id="clipPath2637"><path
         d="m 2560,1280 h 256 v -256 h -256 z"
         id="path2635" /></clipPath><clipPath
       clipPathUnits="userSpaceOnUse"
       id="clipPath2651"><path
         d="m 2816,1280 h 256 v -256 h -256 z"
         id="path2649" /></clipPath><clipPath
       clipPathUnits="userSpaceOnUse"
       id="clipPath2665"><path
         d="m 3072,1280 h 256 v -256 h -256 z"
         id="path2663" /></clipPath><clipPath
       clipPathUnits="userSpaceOnUse"
       id="clipPath2679"><path
         d="m 3328,1280 h 256 v -256 h -256 z"
         id="path2677" /></clipPath><clipPath
       clipPathUnits="userSpaceOnUse"
       id="clipPath2693"><path
         d="m 3584,1280 h 256 v -256 h -256 z"
         id="path2691" /></clipPath><clipPath
       clipPathUnits="userSpaceOnUse"
       id="clipPath2707"><path
         d="m 3840,1280 h 256 v -256 h -256 z"
         id="path2705" /></clipPath><clipPath
       clipPathUnits="userSpaceOnUse"
       id="clipPath2721"><path
         d="M 0,1024 H 256 V 768 H 0 Z"
         id="path2719" /></clipPath><clipPath
       clipPathUnits="userSpaceOnUse"
       id="clipPath2735"><path
         d="M 256,1024 H 512 V 768 H 256 Z"
         id="path2733" /></clipPath><clipPath
       clipPathUnits="userSpaceOnUse"
       id="clipPath2749"><path
         d="M 512,1024 H 768 V 768 H 512 Z"
         id="path2747" /></clipPath><clipPath
       clipPathUnits="userSpaceOnUse"
       id="clipPath2763"><path
         d="m 768,1024 h 256 V 768 H 768 Z"
         id="path2761" /></clipPath><clipPath
       clipPathUnits="userSpaceOnUse"
       id="clipPath2777"><path
         d="m 1024,1024 h 256 V 768 h -256 z"
         id="path2775" /></clipPath><clipPath
       clipPathUnits="userSpaceOnUse"
       id="clipPath2791"><path
         d="m 1280,1024 h 256 V 768 h -256 z"
         id="path2789" /></clipPath><clipPath
       clipPathUnits="userSpaceOnUse"
       id="clipPath2805"><path
         d="m 1536,1024 h 256 V 768 h -256 z"
         id="path2803" /></clipPath><clipPath
       clipPathUnits="userSpaceOnUse"
       id="clipPath2819"><path
         d="m 1792,1024 h 256 V 768 h -256 z"
         id="path2817" /></clipPath><clipPath
       clipPathUnits="userSpaceOnUse"
       id="clipPath2833"><path
         d="m 2048,1024 h 256 V 768 h -256 z"
         id="path2831" /></clipPath><clipPath
       clipPathUnits="userSpaceOnUse"
       id="clipPath2847"><path
         d="m 2304,1024 h 256 V 768 h -256 z"
         id="path2845" /></clipPath><clipPath
       clipPathUnits="userSpaceOnUse"
       id="clipPath2861"><path
         d="m 2560,1024 h 256 V 768 h -256 z"
         id="path2859" /></clipPath><clipPath
       clipPathUnits="userSpaceOnUse"
       id="clipPath2875"><path
         d="m 2816,1024 h 256 V 768 h -256 z"
         id="path2873" /></clipPath><clipPath
       clipPathUnits="userSpaceOnUse"
       id="clipPath2889"><path
         d="m 3072,1024 h 256 V 768 h -256 z"
         id="path2887" /></clipPath><clipPath
       clipPathUnits="userSpaceOnUse"
       id="clipPath2903"><path
         d="m 3328,1024 h 256 V 768 h -256 z"
         id="path2901" /></clipPath><clipPath
       clipPathUnits="userSpaceOnUse"
       id="clipPath2917"><path
         d="m 3584,1024 h 256 V 768 h -256 z"
         id="path2915" /></clipPath><clipPath
       clipPathUnits="userSpaceOnUse"
       id="clipPath2931"><path
         d="m 3840,1024 h 256 V 768 h -256 z"
         id="path2929" /></clipPath><clipPath
       clipPathUnits="userSpaceOnUse"
       id="clipPath2945"><path
         d="M 0,768 H 256 V 512 H 0 Z"
         id="path2943" /></clipPath><clipPath
       clipPathUnits="userSpaceOnUse"
       id="clipPath2959"><path
         d="M 256,768 H 512 V 512 H 256 Z"
         id="path2957" /></clipPath><clipPath
       clipPathUnits="userSpaceOnUse"
       id="clipPath2973"><path
         d="M 512,768 H 768 V 512 H 512 Z"
         id="path2971" /></clipPath><clipPath
       clipPathUnits="userSpaceOnUse"
       id="clipPath2987"><path
         d="m 768,768 h 256 V 512 H 768 Z"
         id="path2985" /></clipPath><clipPath
       clipPathUnits="userSpaceOnUse"
       id="clipPath3001"><path
         d="m 1024,768 h 256 V 512 h -256 z"
         id="path2999" /></clipPath><clipPath
       clipPathUnits="userSpaceOnUse"
       id="clipPath3015"><path
         d="m 1280,768 h 256 V 512 h -256 z"
         id="path3013" /></clipPath><clipPath
       clipPathUnits="userSpaceOnUse"
       id="clipPath3029"><path
         d="m 1536,768 h 256 V 512 h -256 z"
         id="path3027" /></clipPath><clipPath
       clipPathUnits="userSpaceOnUse"
       id="clipPath3043"><path
         d="m 1792,768 h 256 V 512 h -256 z"
         id="path3041" /></clipPath><clipPath
       clipPathUnits="userSpaceOnUse"
       id="clipPath3057"><path
         d="m 2048,768 h 256 V 512 h -256 z"
         id="path3055" /></clipPath><clipPath
       clipPathUnits="userSpaceOnUse"
       id="clipPath3071"><path
         d="m 2304,768 h 256 V 512 h -256 z"
         id="path3069" /></clipPath><clipPath
       clipPathUnits="userSpaceOnUse"
       id="clipPath3085"><path
         d="m 2560,768 h 256 V 512 h -256 z"
         id="path3083" /></clipPath><clipPath
       clipPathUnits="userSpaceOnUse"
       id="clipPath3099"><path
         d="m 2816,768 h 256 V 512 h -256 z"
         id="path3097" /></clipPath><clipPath
       clipPathUnits="userSpaceOnUse"
       id="clipPath3113"><path
         d="m 3072,768 h 256 V 512 h -256 z"
         id="path3111" /></clipPath><clipPath
       clipPathUnits="userSpaceOnUse"
       id="clipPath3127"><path
         d="m 3328,768 h 256 V 512 h -256 z"
         id="path3125" /></clipPath><clipPath
       clipPathUnits="userSpaceOnUse"
       id="clipPath3141"><path
         d="m 3584,768 h 256 V 512 h -256 z"
         id="path3139" /></clipPath><clipPath
       clipPathUnits="userSpaceOnUse"
       id="clipPath3155"><path
         d="m 3840,768 h 256 V 512 h -256 z"
         id="path3153" /></clipPath><clipPath
       clipPathUnits="userSpaceOnUse"
       id="clipPath3169"><path
         d="M 0,512 H 256 V 256 H 0 Z"
         id="path3167" /></clipPath><clipPath
       clipPathUnits="userSpaceOnUse"
       id="clipPath3183"><path
         d="M 256,512 H 512 V 256 H 256 Z"
         id="path3181" /></clipPath><clipPath
       clipPathUnits="userSpaceOnUse"
       id="clipPath3197"><path
         d="M 512,512 H 768 V 256 H 512 Z"
         id="path3195" /></clipPath><clipPath
       clipPathUnits="userSpaceOnUse"
       id="clipPath3211"><path
         d="m 768,512 h 256 V 256 H 768 Z"
         id="path3209" /></clipPath><clipPath
       clipPathUnits="userSpaceOnUse"
       id="clipPath3225"><path
         d="m 1024,512 h 256 V 256 h -256 z"
         id="path3223" /></clipPath><clipPath
       clipPathUnits="userSpaceOnUse"
       id="clipPath3239"><path
         d="m 1280,512 h 256 V 256 h -256 z"
         id="path3237" /></clipPath><clipPath
       clipPathUnits="userSpaceOnUse"
       id="clipPath3253"><path
         d="m 1536,512 h 256 V 256 h -256 z"
         id="path3251" /></clipPath><clipPath
       clipPathUnits="userSpaceOnUse"
       id="clipPath3267"><path
         d="m 1792,512 h 256 V 256 h -256 z"
         id="path3265" /></clipPath><clipPath
       clipPathUnits="userSpaceOnUse"
       id="clipPath3281"><path
         d="m 2048,512 h 256 V 256 h -256 z"
         id="path3279" /></clipPath><clipPath
       clipPathUnits="userSpaceOnUse"
       id="clipPath3295"><path
         d="m 2304,512 h 256 V 256 h -256 z"
         id="path3293" /></clipPath><clipPath
       clipPathUnits="userSpaceOnUse"
       id="clipPath3309"><path
         d="m 2560,512 h 256 V 256 h -256 z"
         id="path3307" /></clipPath><clipPath
       clipPathUnits="userSpaceOnUse"
       id="clipPath3323"><path
         d="m 2816,512 h 256 V 256 h -256 z"
         id="path3321" /></clipPath><clipPath
       clipPathUnits="userSpaceOnUse"
       id="clipPath3337"><path
         d="m 3072,512 h 256 V 256 h -256 z"
         id="path3335" /></clipPath><clipPath
       clipPathUnits="userSpaceOnUse"
       id="clipPath3351"><path
         d="m 3328,512 h 256 V 256 h -256 z"
         id="path3349" /></clipPath><clipPath
       clipPathUnits="userSpaceOnUse"
       id="clipPath3365"><path
         d="m 3584,512 h 256 V 256 h -256 z"
         id="path3363" /></clipPath><clipPath
       clipPathUnits="userSpaceOnUse"
       id="clipPath3379"><path
         d="m 3840,512 h 256 V 256 h -256 z"
         id="path3377" /></clipPath><clipPath
       clipPathUnits="userSpaceOnUse"
       id="clipPath3393"><path
         d="M 0,256 H 256 V 0 H 0 Z"
         id="path3391" /></clipPath><clipPath
       clipPathUnits="userSpaceOnUse"
       id="clipPath3407"><path
         d="M 256,256 H 512 V 0 H 256 Z"
         id="path3405" /></clipPath><clipPath
       clipPathUnits="userSpaceOnUse"
       id="clipPath3421"><path
         d="M 512,256 H 768 V 0 H 512 Z"
         id="path3419" /></clipPath><clipPath
       clipPathUnits="userSpaceOnUse"
       id="clipPath3435"><path
         d="m 768,256 h 256 V 0 H 768 Z"
         id="path3433" /></clipPath><clipPath
       clipPathUnits="userSpaceOnUse"
       id="clipPath3449"><path
         d="m 1024,256 h 256 V 0 h -256 z"
         id="path3447" /></clipPath><clipPath
       clipPathUnits="userSpaceOnUse"
       id="clipPath3463"><path
         d="m 1280,256 h 256 V 0 h -256 z"
         id="path3461" /></clipPath><clipPath
       clipPathUnits="userSpaceOnUse"
       id="clipPath3477"><path
         d="m 1536,256 h 256 V 0 h -256 z"
         id="path3475" /></clipPath><clipPath
       clipPathUnits="userSpaceOnUse"
       id="clipPath3491"><path
         d="m 1792,256 h 256 V 0 h -256 z"
         id="path3489" /></clipPath><clipPath
       clipPathUnits="userSpaceOnUse"
       id="clipPath3505"><path
         d="m 2048,256 h 256 V 0 h -256 z"
         id="path3503" /></clipPath><clipPath
       clipPathUnits="userSpaceOnUse"
       id="clipPath3519"><path
         d="m 2304,256 h 256 V 0 h -256 z"
         id="path3517" /></clipPath><clipPath
       clipPathUnits="userSpaceOnUse"
       id="clipPath3533"><path
         d="m 2560,256 h 256 V 0 h -256 z"
         id="path3531" /></clipPath><clipPath
       clipPathUnits="userSpaceOnUse"
       id="clipPath3547"><path
         d="m 2816,256 h 256 V 0 h -256 z"
         id="path3545" /></clipPath><clipPath
       clipPathUnits="userSpaceOnUse"
       id="clipPath3561"><path
         d="m 3072,256 h 256 V 0 h -256 z"
         id="path3559" /></clipPath><clipPath
       clipPathUnits="userSpaceOnUse"
       id="clipPath3575"><path
         d="m 3328,256 h 256 V 0 h -256 z"
         id="path3573" /></clipPath><clipPath
       clipPathUnits="userSpaceOnUse"
       id="clipPath3589"><path
         d="m 3584,256 h 256 V 0 h -256 z"
         id="path3587" /></clipPath><clipPath
       clipPathUnits="userSpaceOnUse"
       id="clipPath3603"><path
         d="m 3840,256 h 256 V 0 h -256 z"
         id="path3601" /></clipPath><clipPath
       clipPathUnits="userSpaceOnUse"
       id="clipPath3617"><path
         d="M 0,4096 H 4096 V 0 H 0 Z"
         id="path3615" /></clipPath><clipPath
       clipPathUnits="userSpaceOnUse"
       id="clipPath3649"><path
         d="M 0,4096 H 4096 V 0 H 0 Z"
         id="path3647" /></clipPath><clipPath
       clipPathUnits="userSpaceOnUse"
       id="clipPath3795"><path
         d="m 1030.06,2429.64 h 799.93 V 1629.7 h -799.93 z"
         id="path3793" /></clipPath><linearGradient
       x1="0"
       y1="0"
       x2="1"
       y2="0"
       gradientUnits="userSpaceOnUse"
       gradientTransform="matrix(0,-799.93512,-799.93512,0,1430.0264,2429.6357)"
       spreadMethod="pad"
       id="linearGradient3805"><stop
         style="stop-opacity:1;stop-color:#141416"
         offset="0"
         id="stop3801" /><stop
         style="stop-opacity:1;stop-color:#000000"
         offset="1"
         id="stop3803" /></linearGradient><clipPath
       clipPathUnits="userSpaceOnUse"
       id="clipPath3839"><path
         d="m 2265.96,2429.64 h 799.93 V 1629.7 h -799.93 z"
         id="path3837" /></clipPath><linearGradient
       x1="0"
       y1="0"
       x2="1"
       y2="0"
       gradientUnits="userSpaceOnUse"
       gradientTransform="matrix(0,-799.93512,-799.93512,0,2665.9263,2429.6357)"
       spreadMethod="pad"
       id="linearGradient3849"><stop
         style="stop-opacity:1;stop-color:#141416"
         offset="0"
         id="stop3845" /><stop
         style="stop-opacity:1;stop-color:#000000"
         offset="1"
         id="stop3847" /></linearGradient></defs><sodipodi:namedview
     id="namedview11"
     pagecolor="#505050"
     bordercolor="#eeeeee"
     borderopacity="1"
     inkscape:pageshadow="0"
     inkscape:pageopacity="0"
     inkscape:pagecheckerboard="0"
     showgrid="false"
     inkscape:zoom="8"
     inkscape:cx="28.125"
     inkscape:cy="22.625"
     inkscape:window-width="1920"
     inkscape:window-height="1027"
     inkscape:window-x="-8"
     inkscape:window-y="-8"
     inkscape:window-maximized="1"
     inkscape:current-layer="g3645" /><g
     id="g15"
     inkscape:groupmode="layer"
     inkscape:label="Youtube"
     transform="matrix(1.3333333,0,0,-1.3333333,-114.37733,5383.8338)"
     style="display:inline"><g
       id="g3643"
       style="display:inline"
       transform="matrix(0.15203978,0,0,0.15203978,-0.02163526,3519.0408)"
       inkscape:export-filename="C:\Users\James\Downloads\.images\dualsense\cosmic red.png"
       inkscape:export-xdpi="96"
       inkscape:export-ydpi="96"><g
         id="g3645"
         clip-path="url(#clipPath3649)"
         style="display:inline"><path
           d="m 951.9858,3399.1919 12.56543,-64.6439 c -70.2941,-14.1821 -211.51056,-31.287 -400.19474,-81.8494 l 8.09731,72.7203 z"
           style="fill:#808080;fill-opacity:1;fill-rule:nonzero;stroke:none"
           id="path3653"
           sodipodi:nodetypes="ccccc" /><path
           d="m 951.9858,3399.1919 -379.532,-73.773 c -3.654,18.8 78.349,50.542 183.152,70.914 104.803,20.371 192.726,21.659 196.38,2.859"
           style="fill:#b2b2b2;fill-opacity:1;fill-rule:nonzero;stroke:none"
           id="path3657" /></g></g></g></svg>
